<svg width="19" height="19" viewBox="0 0 19 19" fill="none" xmlns="http://www.w3.org/2000/svg">
  <path d="M17.4697 18.6903C17.7626 18.9832 18.2374 18.9832 18.5303 18.6903C18.8232 18.3974 18.8232 17.9226 18.5303 17.6297L17.4697 18.6903ZM15.25 8.66C15.25 12.3879 12.2279 15.41 8.5 15.41V16.91C13.0563 16.91 16.75 13.2164 16.75 8.66H15.25ZM8.5 15.41C4.77208 15.41 1.75 12.3879 1.75 8.66H0.25C0.25 13.2164 3.94365 16.91 8.5 16.91V15.41ZM1.75 8.66C1.75 4.93208 4.77208 1.91 8.5 1.91V0.410004C3.94365 0.410004 0.25 4.10365 0.25 8.66H1.75ZM8.5 1.91C12.2279 1.91 15.25 4.93208 15.25 8.66H16.75C16.75 4.10365 13.0563 0.410004 8.5 0.410004V1.91ZM18.5303 17.6297L14.3428 13.4421L13.2821 14.5028L17.4697 18.6903L18.5303 17.6297Z" fill="#858585"/>
</svg>
